/* XPM */
static char *_6138be31c24400da77a5a8bd86ebe16n3jt21oD47wqrPJe[] = {
/* columns rows colors chars-per-pixel */
"33 33 3 1 ",
"  c #808080",
". c #C0C0C0",
"X c white",
/* pixels */
"XXXXXXXXXXXXXXXXXXXXXXXXXXXXXXXX ",
"X . X . ..... X. X.X.. X .X.. X  ",
"X...X... ..  X.. .. ......  ...  ",
"X .. ..X.XX X XX ..X. ..X....X.  ",
"XX XX......X .X ..X .X. . ..X X  ",
"X.X ....  X. . .X X .X.X .. X..  ",
"XX. ..XX..XX... X. ..  X.  . X   ",
"XX...  . .. .. .X.X X.   XX . .  ",
"X.X X X .. ..X. .. X.XX... X X.  ",
"XX .X. X. .X .XXX  ..X. ... .X.  ",
"X. . .X..  ....  . .. .. ...X..  ",
"X X X.X. ..X  XX X. ..X XX... .  ",
"XX... ..X. ...  . ...X ......X.  ",
"X ..X.X X ..  X .....X........   ",
"X.X.......X. .X.X.. X. X X.X X.  ",
"X                                ",
"                                 ",
"XXXXXXXXXXXXXXXXX XXXXXXXXXXXXXXX",
".X .. ......X..X  X..  .X. .. ...",
" .XX.X. X..XX...  XX.... ..X.XX. ",
"XX. .X..X..  XXX  X . .XX.X .X.. ",
" .X. XX   ..X X.  X.X. X... .....",
"X. .... .XX ...X  X.X..X...X. ...",
"... X X. .X. . .  X ....X   .. .X",
".X......X. ..XX.  X.  ........X. ",
". X.X .  ..X X..  X ...XX.  .....",
"X... ..X.XX.. XX  XX. .......X.. ",
" X XX.........X   X .X. . ..X  XX",
"..X ..X.X. . ...  X .X.. X. X. . ",
" .. ..X X XX....  X.. X...X. X ..",
"X.... ..X.. .. .  X X . X.... .X ",
"                  X              ",
"                                 "
};
