/* XPM */
static char *_3cac44f128147aea6e803769f2c7a63BMywOCVu4bAHW9Xx[] = {
/* columns rows colors chars-per-pixel */
"128 128 4 1 ",
"  c #808080",
". c #80858F",
"X c #C0C0C0",
"o c white",
/* pixels */
"oooooooooooooooooooooooooooooooooooooooooooooooooooooooooooooooooooooooooooooooooooooooooooooooooooooooooooooooooooooooooooooooo",
"oo    XXXX     ooo     XXXX    XXXXXXXXXXXXXXXXXXXX    ooooXXXXX     ooooXXXXooooXXXXXXX    ooooo    XXXXoooooXXXXXXX     oooo..",
"oo    XXXXXXXXX   XXXXXXXXXooooXXXXooooooooo    ooo    ooooooooo     XXXXXXXXooooXXX    XXXXXXXXXooooXXXXXXXXXXXXXXXXoooooXXXX..",
"ooooooXXXX     XXXXXXXXooooooooXXXXXXXXXooooooooXXXXXXXXXXX.....oooooXXXX    XXXXXXX        oooooXXXX         XXXX   ooooo......",
"ooXXXXoooo     ooo     oooo    XXXXXXXXX....XXXXXXXooooXXXX.....XXXXXXXXX    ooooXXXooooooooXXXXXXXXXXXXX     oooo   oooooXXXX..",
"ooXXXX    XXXXX   XXXXXooooXXXXXXXX.........XXXXXXXXXXXXXXX..........XXXX    XXXXXXX    XXXXXXXXX    XXXXXXXXXXXXXoooXXXXXXXXX..",
"oo....XXXXXXXXXoooXXXXXoooo....oooo.....XXXXXXXX.......oooo.....XXXXXXXXXXXXXXXXXXXXooooXXXXXXXXXXXXXXXXXXXXXXXXXXXXXXXXXX......",
"oo..............................................................................................................................",
"oo....XXXX.....ooo.....XXXX....XXXXXXXXXXXXXXXXXXXX....ooooXXXXX.....ooooXXXXooooXXXXXXX....ooooo....XXXXoooooXXXXXXX.....oooo..",
"oo....XXXXXXXXX   XXXXXXXXXooooXXXXooooooooo    ooo....ooooooooo.....XXXXXXXXooooXXX    XXXXXXXXXooooXXXXXXXXXXXXXXXXoooooXXXX..",
"ooooooXXXX     XXXXXXXXooooooooXXXXXXXXXooooooooXXXXXXXXXXX.....oooooXXXX    XXXXXXX        oooooXXXX         XXXX   ooooo......",
"ooXXXXoooo     ooo     oooo    XXXXXXXXX....XXXXXXXooooXXXX.....XXXXXXXXX    ooooXXXooooooooXXXXXXXXXXXXX     oooo   oooooXXXX..",
"ooXXXX    XXXXX   XXXXXooooXXXXXXXX.........XXXXXXXXXXXXXXX..........XXXX    XXXXXXX    XXXXXXXXX    XXXXXXXXXXXXXoooXXXXXXXXX..",
"oo....XXXXXXXXXoooXXXXXoooo....oooo.....XXXXXXXX.......oooo.....XXXXXXXXXXXXXXXXXXXXooooXXXXXXXXXXXXXXXXXXXXXXXXXXXXXXXXXX......",
"oo..............................................................................................................................",
"oo....XXXX.....ooo.....XXXX....XXXXXXXXXXXXXXXXXXXX....ooooXXXXX.....ooooXXXXooooXXXXXXX....ooooo....XXXXoooooXXXXXXX.....oooo..",
"oo....XXXXXXXXX   XXXXXXXXXooooXXXXooooooooo    ooo....ooooooooo.....XXXXXXXXooooXXX    XXXXXXXXXooooXXXXXXXXXXXXXXXXoooooXXXX..",
"ooooooXXXX     XXXXXXXXooooooooXXXXXXXXXooooooooXXXXXXXXXXX.....oooooXXXX    XXXXXXX        oooooXXXX         XXXX   ooooo......",
"ooXXXXoooo     ooo     oooo    XXXXXXXXX....XXXXXXXooooXXXX.....XXXXXXXXX    ooooXXXooooooooXXXXXXXXXXXXX     oooo   oooooXXXX..",
"ooXXXX    XXXXX   XXXXXooooXXXXXXXX.........XXXXXXXXXXXXXXX..........XXXX    XXXXXXX    XXXXXXXXX    XXXXXXXXXXXXXoooXXXXXXXXX..",
"oo....XXXXXXXXXoooXXXXXoooo....oooo.....XXXXXXXX.......oooo.....XXXXXXXXXXXXXXXXXXXXooooXXXXXXXXXXXXXXXXXXXXXXXXXXXXXXXXXX......",
"oo..............................................................................................................................",
"oo....XXXX.....ooo.....XXXX....XXXXXXXXXXXXXXXXXXXX....ooooXXXXX.....ooooXXXXooooXXXXXXX....ooooo....XXXXoooooXXXXXXX.....oooo..",
"oo....XXXXXXXXX   XXXXXXXXXooooXXXXooooooooo    ooo....ooooooooo.....XXXXXXXXooooXXX    XXXXXXXXXooooXXXXXXXXXXXXXXXXoooooXXXX..",
"ooooooXXXX     XXXXXXXXooooooooXXXXXXXXXooooooooXXXXXXXXXXX.....oooooXXXX    XXXXXXX        oooooXXXX         XXXX   ooooo......",
"ooXXXXoooo     ooo     oooo    XXXXXXXXX....XXXXXXXooooXXXX.....XXXXXXXXX    ooooXXXooooooooXXXXXXXXXXXXX     oooo   oooooXXXX..",
"ooXXXX    XXXXX   XXXXXooooXXXXXXXX.........XXXXXXXXXXXXXXX..........XXXX    XXXXXXX    XXXXXXXXX    XXXXXXXXXXXXXoooXXXXXXXXX..",
"oo....XXXXXXXXXoooXXXXXoooo....oooo.....XXXXXXXX.......oooo.....XXXXXXXXXXXXXXXXXXXXooooXXXXXXXXXXXXXXXXXXXXXXXXXXXXXXXXXX......",
"oo..............................................................................................................................",
"oo....XXXX.....ooo.....XXXX....XXXXXXXXXXXXXXXXXXXX....ooooXXXXX.....ooooXXXXooooXXXXXXX....ooooo....XXXXoooooXXXXXXX.....oooo..",
"oo....XXXXXXXXX   XXXXXXXXXooooXXXXooooooooo    ooo....ooooooooo.....XXXXXXXXooooXXX    XXXXXXXXXooooXXXXXXXXXXXXXXXXoooooXXXX..",
"ooooooXXXX     XXXXXXXXooooooooXXXXXXXXXooooooooXXXXXXXXXXX.....oooooXXXX    XXXXXXX        oooooXXXX         XXXX   ooooo......",
"ooXXXXoooo     ooo     oooo    XXXXXXXXX....XXXXXXXooooXXXX.....XXXXXXXXX    ooooXXXooooooooXXXXXXXXXXXXX     oooo   oooooXXXX..",
"ooXXXX    XXXXX   XXXXXooooXXXXXXXX.........XXXXXXXXXXXXXXX..........XXXX    XXXXXXX    XXXXXXXXX    XXXXXXXXXXXXXoooXXXXXXXXX..",
"oo....XXXXXXXXXoooXXXXXoooo....oooo.....XXXXXXXX.......oooo.....XXXXXXXXXXXXXXXXXXXXooooXXXXXXXXXXXXXXXXXXXXXXXXXXXXXXXXXX......",
"oo..............................................................................................................................",
"oo....XXXX.....ooo.....XXXX....XXXXXXXXXXXXXXXXXXXX....ooooXXXXX.....ooooXXXXooooXXXXXXX....ooooo....XXXXoooooXXXXXXX.....oooo..",
"oo....XXXXXXXXX   XXXXXXXXXooooXXXXooooooooo    ooo....ooooooooo.....XXXXXXXXooooXXX    XXXXXXXXXooooXXXXXXXXXXXXXXXXoooooXXXX..",
"ooooooXXXX     XXXXXXXXooooooooXXXXXXXXXooooooooXXXXXXXXXXX.....oooooXXXX    XXXXXXX        oooooXXXX         XXXX   ooooo......",
"ooXXXXoooo     ooo     oooo    XXXXXXXXX....XXXXXXXooooXXXX.....XXXXXXXXX    ooooXXXooooooooXXXXXXXXXXXXX     oooo   oooooXXXX..",
"ooXXXX    XXXXX   XXXXXooooXXXXXXXX.........XXXXXXXXXXXXXXX..........XXXX    XXXXXXX    XXXXXXXXX    XXXXXXXXXXXXXoooXXXXXXXXX..",
"oo....XXXXXXXXXoooXXXXXoooo....oooo.....XXXXXXXX.......oooo.....XXXXXXXXXXXXXXXXXXXXooooXXXXXXXXXXXXXXXXXXXXXXXXXXXXXXXXXX......",
"oo..............................................................................................................................",
"oo....XXXX.....ooo.....XXXX....XXXXXXXXXXXXXXXXXXXX....ooooXXXXX.....ooooXXXXooooXXXXXXX....ooooo....XXXXoooooXXXXXXX.....oooo..",
"oo....XXXXXXXXX   XXXXXXXXXooooXXXXooooooooo    ooo....ooooooooo.....XXXXXXXXooooXXX    XXXXXXXXXooooXXXXXXXXXXXXXXXXoooooXXXX..",
"ooooooXXXX     XXXXXXXXooooooooXXXXXXXXXooooooooXXXXXXXXXXX.....oooooXXXX    XXXXXXX        oooooXXXX         XXXX   ooooo......",
"ooXXXXoooo     ooo     oooo    XXXXXXXXX....XXXXXXXooooXXXX.....XXXXXXXXX    ooooXXXooooooooXXXXXXXXXXXXX     oooo   oooooXXXX..",
"ooXXXX    XXXXX   XXXXXooooXXXXXXXX.........XXXXXXXXXXXXXXX..........XXXX    XXXXXXX    XXXXXXXXX    XXXXXXXXXXXXXoooXXXXXXXXX..",
"oo....XXXXXXXXXoooXXXXXoooo....oooo.....XXXXXXXX.......oooo.....XXXXXXXXXXXXXXXXXXXXooooXXXXXXXXXXXXXXXXXXXXXXXXXXXXXXXXXX......",
"oo..............................................................................................................................",
"oo....XXXX.....ooo.....XXXX....XXXXXXXXXXXXXXXXXXXX....ooooXXXXX.....ooooXXXXooooXXXXXXX....ooooo....XXXXoooooXXXXXXX.....oooo..",
"oo....XXXXXXXXX   XXXXXXXXXooooXXXXooooooooo    ooo....ooooooooo.....XXXXXXXXooooXXX    XXXXXXXXXooooXXXXXXXXXXXXXXXXoooooXXXX..",
"ooooooXXXX     XXXXXXXXooooooooXXXXXXXXXooooooooXXXXXXXXXXX.....oooooXXXX    XXXXXXX        oooooXXXX         XXXX   ooooo......",
"ooXXXXoooo     ooo     oooo    XXXXXXXXX....XXXXXXXooooXXXX.....XXXXXXXXX    ooooXXXooooooooXXXXXXXXXXXXX     oooo   oooooXXXX..",
"ooXXXX    XXXXX   XXXXXooooXXXXXXXX.........XXXXXXXXXXXXXXX..........XXXX    XXXXXXX    XXXXXXXXX    XXXXXXXXXXXXXoooXXXXXXXXX..",
"oo....XXXXXXXXXoooXXXXXoooo....oooo.....XXXXXXXX.......oooo.....XXXXXXXXXXXXXXXXXXXXooooXXXXXXXXXXXXXXXXXXXXXXXXXXXXXXXXXX......",
"oo..............................................................................................................................",
"oo....XXXX.....ooo.....XXXX....XXXXXXXXXXXXXXXXXXXX....ooooXXXXX.....ooooXXXXooooXXXXXXX....ooooo....XXXXoooooXXXXXXX.....oooo..",
"oo....XXXXXXXXX   XXXXXXXXXooooXXXXooooooooo    ooo....ooooooooo.....XXXXXXXXooooXXX    XXXXXXXXXooooXXXXXXXXXXXXXXXXoooooXXXX..",
"ooooooXXXX     XXXXXXXXooooooooXXXXXXXXXooooooooXXXXXXXXXXX.....oooooXXXX    XXXXXXX        oooooXXXX         XXXX   ooooo......",
"ooXXXXoooo     ooo     oooo    XXXXXXXXX....XXXXXXXooooXXXX.....XXXXXXXXX    ooooXXXooooooooXXXXXXXXXXXXX     oooo   oooooXXXX..",
"ooXXXX    XXXXX   XXXXXooooXXXXXXXX.........XXXXXXXXXXXXXXX..........XXXX    XXXXXXX    XXXXXXXXX    XXXXXXXXXXXXXoooXXXXXXXXX..",
"oo....XXXXXXXXXoooXXXXXoooo....oooo.....XXXXXXXX.......oooo.....XXXXXXXXXXXXXXXXXXXXooooXXXXXXXXXXXXXXXXXXXXXXXXXXXXXXXXXX......",
"oo..............................................................................................................................",
"oo....XXXX.....ooo.....XXXX....XXXXXXXXXXXXXXXXXXXX....ooooXXXXX.....ooooXXXXooooXXXXXXX....ooooo....XXXXoooooXXXXXXX.....oooo..",
"oo....XXXXXXXXX   XXXXXXXXXooooXXXXooooooooo    ooo....ooooooooo.....XXXXXXXXooooXXX    XXXXXXXXXooooXXXXXXXXXXXXXXXXoooooXXXX..",
"oo....XXXXXXXXX   XXXXXXXXXooooXXXXooooooooo    ooo....ooooooooo.....XXXXXXXXooooXXX    XXXXXXXXXooooXXXXXXXXXXXXXXXXoooooXXXX..",
"ooooooXXXX     XXXXXXXXooooooooXXXXXXXXXooooooooXXXXXXXXXXX.....oooooXXXX    XXXXXXX        oooooXXXX         XXXX   ooooo......",
"ooXXXXoooo     ooo     oooo    XXXXXXXXX....XXXXXXXooooXXXX.....XXXXXXXXX    ooooXXXooooooooXXXXXXXXXXXXX     oooo   oooooXXXX..",
"ooXXXX    XXXXX   XXXXXooooXXXXXXXX.........XXXXXXXXXXXXXXX..........XXXX    XXXXXXX    XXXXXXXXX    XXXXXXXXXXXXXoooXXXXXXXXX..",
"oo....XXXXXXXXXoooXXXXXoooo....oooo.....XXXXXXXX.......oooo.....XXXXXXXXXXXXXXXXXXXXooooXXXXXXXXXXXXXXXXXXXXXXXXXXXXXXXXXX......",
"oo..............................................................................................................................",
"oo....XXXX.....ooo.....XXXX....XXXXXXXXXXXXXXXXXXXX....ooooXXXXX.....ooooXXXXooooXXXXXXX....ooooo....XXXXoooooXXXXXXX.....oooo..",
"oo....XXXXXXXXX   XXXXXXXXXooooXXXXooooooooo    ooo....ooooooooo.....XXXXXXXXooooXXX    XXXXXXXXXooooXXXXXXXXXXXXXXXXoooooXXXX..",
"ooooooXXXX     XXXXXXXXooooooooXXXXXXXXXooooooooXXXXXXXXXXX.....oooooXXXX    XXXXXXX        oooooXXXX         XXXX   ooooo......",
"ooXXXXoooo     ooo     oooo    XXXXXXXXX....XXXXXXXooooXXXX.....XXXXXXXXX    ooooXXXooooooooXXXXXXXXXXXXX     oooo   oooooXXXX..",
"ooXXXX    XXXXX   XXXXXooooXXXXXXXX.........XXXXXXXXXXXXXXX..........XXXX    XXXXXXX    XXXXXXXXX    XXXXXXXXXXXXXoooXXXXXXXXX..",
"oo....XXXXXXXXXoooXXXXXoooo....oooo.....XXXXXXXX.......oooo.....XXXXXXXXXXXXXXXXXXXXooooXXXXXXXXXXXXXXXXXXXXXXXXXXXXXXXXXX......",
"oo..............................................................................................................................",
"oo....XXXX.....ooo.....XXXX....XXXXXXXXXXXXXXXXXXXX....ooooXXXXX.....ooooXXXXooooXXXXXXX....ooooo....XXXXoooooXXXXXXX.....oooo..",
"oo....XXXXXXXXX   XXXXXXXXXooooXXXXooooooooo    ooo....ooooooooo.....XXXXXXXXooooXXX    XXXXXXXXXooooXXXXXXXXXXXXXXXXoooooXXXX..",
"ooooooXXXX     XXXXXXXXooooooooXXXXXXXXXooooooooXXXXXXXXXXX.....oooooXXXX    XXXXXXX        oooooXXXX         XXXX   ooooo......",
"ooXXXXoooo     ooo     oooo    XXXXXXXXX....XXXXXXXooooXXXX.....XXXXXXXXX    ooooXXXooooooooXXXXXXXXXXXXX     oooo   oooooXXXX..",
"ooXXXX    XXXXX   XXXXXooooXXXXXXXX.........XXXXXXXXXXXXXXX..........XXXX    XXXXXXX    XXXXXXXXX    XXXXXXXXXXXXXoooXXXXXXXXX..",
"oo....XXXXXXXXXoooXXXXXoooo....oooo.....XXXXXXXX.......oooo.....XXXXXXXXXXXXXXXXXXXXooooXXXXXXXXXXXXXXXXXXXXXXXXXXXXXXXXXX......",
"oo..............................................................................................................................",
"oo....XXXX.....ooo.....XXXX....XXXXXXXXXXXXXXXXXXXX....ooooXXXXX.....ooooXXXXooooXXXXXXX....ooooo....XXXXoooooXXXXXXX.....oooo..",
"oo....XXXXXXXXX   XXXXXXXXXooooXXXXooooooooo    ooo....ooooooooo.....XXXXXXXXooooXXX    XXXXXXXXXooooXXXXXXXXXXXXXXXXoooooXXXX..",
"ooooooXXXX     XXXXXXXXooooooooXXXXXXXXXooooooooXXXXXXXXXXX.....oooooXXXX    XXXXXXX        oooooXXXX         XXXX   ooooo......",
"ooXXXXoooo     ooo     oooo    XXXXXXXXX....XXXXXXXooooXXXX.....XXXXXXXXX    ooooXXXooooooooXXXXXXXXXXXXX     oooo   oooooXXXX..",
"ooXXXX    XXXXX   XXXXXooooXXXXXXXX.........XXXXXXXXXXXXXXX..........XXXX    XXXXXXX    XXXXXXXXX    XXXXXXXXXXXXXoooXXXXXXXXX..",
"oo....XXXXXXXXXoooXXXXXoooo....oooo.....XXXXXXXX.......oooo.....XXXXXXXXXXXXXXXXXXXXooooXXXXXXXXXXXXXXXXXXXXXXXXXXXXXXXXXX......",
"oo..............................................................................................................................",
"oo....XXXX.....ooo.....XXXX....XXXXXXXXXXXXXXXXXXXX....ooooXXXXX.....ooooXXXXooooXXXXXXX....ooooo....XXXXoooooXXXXXXX.....oooo..",
"oo....XXXXXXXXX   XXXXXXXXXooooXXXXooooooooo    ooo....ooooooooo.....XXXXXXXXooooXXX    XXXXXXXXXooooXXXXXXXXXXXXXXXXoooooXXXX..",
"ooooooXXXX     XXXXXXXXooooooooXXXXXXXXXooooooooXXXXXXXXXXX.....oooooXXXX    XXXXXXX        oooooXXXX         XXXX   ooooo......",
"ooXXXXoooo     ooo     oooo    XXXXXXXXX....XXXXXXXooooXXXX.....XXXXXXXXX    ooooXXXooooooooXXXXXXXXXXXXX     oooo   oooooXXXX..",
"ooXXXX    XXXXX   XXXXXooooXXXXXXXX.........XXXXXXXXXXXXXXX..........XXXX    XXXXXXX    XXXXXXXXX    XXXXXXXXXXXXXoooXXXXXXXXX..",
"oo....XXXXXXXXXoooXXXXXoooo....oooo.....XXXXXXXX.......oooo.....XXXXXXXXXXXXXXXXXXXXooooXXXXXXXXXXXXXXXXXXXXXXXXXXXXXXXXXX......",
"oo..............................................................................................................................",
"oo....XXXX.....ooo.....XXXX....XXXXXXXXXXXXXXXXXXXX....ooooXXXXX.....ooooXXXXooooXXXXXXX....ooooo....XXXXoooooXXXXXXX.....oooo..",
"oo....XXXXXXXXX   XXXXXXXXXooooXXXXooooooooo    ooo....ooooooooo.....XXXXXXXXooooXXX    XXXXXXXXXooooXXXXXXXXXXXXXXXXoooooXXXX..",
"ooooooXXXX     XXXXXXXXooooooooXXXXXXXXXooooooooXXXXXXXXXXX.....oooooXXXX    XXXXXXX        oooooXXXX         XXXX   ooooo......",
"ooXXXXoooo     ooo     oooo    XXXXXXXXX....XXXXXXXooooXXXX.....XXXXXXXXX    ooooXXXooooooooXXXXXXXXXXXXX     oooo   oooooXXXX..",
"ooXXXX    XXXXX   XXXXXooooXXXXXXXX.........XXXXXXXXXXXXXXX..........XXXX    XXXXXXX    XXXXXXXXX    XXXXXXXXXXXXXoooXXXXXXXXX..",
"oo....XXXXXXXXXoooXXXXXoooo....oooo.....XXXXXXXX.......oooo.....XXXXXXXXXXXXXXXXXXXXooooXXXXXXXXXXXXXXXXXXXXXXXXXXXXXXXXXX......",
"oo..............................................................................................................................",
"oo....XXXX.....ooo.....XXXX....XXXXXXXXXXXXXXXXXXXX....ooooXXXXX.....ooooXXXXooooXXXXXXX....ooooo....XXXXoooooXXXXXXX.....oooo..",
"oo....XXXXXXXXX   XXXXXXXXXooooXXXXooooooooo    ooo....ooooooooo.....XXXXXXXXooooXXX    XXXXXXXXXooooXXXXXXXXXXXXXXXXoooooXXXX..",
"ooooooXXXX     XXXXXXXXooooooooXXXXXXXXXooooooooXXXXXXXXXXX.....oooooXXXX    XXXXXXX        oooooXXXX         XXXX   ooooo......",
"ooXXXXoooo     ooo     oooo    XXXXXXXXX....XXXXXXXooooXXXX.....XXXXXXXXX    ooooXXXooooooooXXXXXXXXXXXXX     oooo   oooooXXXX..",
"ooXXXX    XXXXX   XXXXXooooXXXXXXXX.........XXXXXXXXXXXXXXX..........XXXX    XXXXXXX    XXXXXXXXX    XXXXXXXXXXXXXoooXXXXXXXXX..",
"oo....XXXXXXXXXoooXXXXXoooo....oooo.....XXXXXXXX.......oooo.....XXXXXXXXXXXXXXXXXXXXooooXXXXXXXXXXXXXXXXXXXXXXXXXXXXXXXXXX......",
"oo..............................................................................................................................",
"oo....XXXX.....ooo.....XXXX....XXXXXXXXXXXXXXXXXXXX....ooooXXXXX.....ooooXXXXooooXXXXXXX....ooooo....XXXXoooooXXXXXXX.....oooo..",
"oo....XXXXXXXXX   XXXXXXXXXooooXXXXooooooooo    ooo....ooooooooo.....XXXXXXXXooooXXX    XXXXXXXXXooooXXXXXXXXXXXXXXXXoooooXXXX..",
"ooooooXXXX     XXXXXXXXooooooooXXXXXXXXXooooooooXXXXXXXXXXX.....oooooXXXX    XXXXXXX        oooooXXXX         XXXX   ooooo......",
"ooXXXXoooo     ooo     oooo    XXXXXXXXX....XXXXXXXooooXXXX.....XXXXXXXXX    ooooXXXooooooooXXXXXXXXXXXXX     oooo   oooooXXXX..",
"ooXXXX    XXXXX   XXXXXooooXXXXXXXX.........XXXXXXXXXXXXXXX..........XXXX    XXXXXXX    XXXXXXXXX    XXXXXXXXXXXXXoooXXXXXXXXX..",
"oo....XXXXXXXXXoooXXXXXoooo....oooo.....XXXXXXXX.......oooo.....XXXXXXXXXXXXXXXXXXXXooooXXXXXXXXXXXXXXXXXXXXXXXXXXXXXXXXXX......",
"oo..............................................................................................................................",
"oo....XXXX.....ooo.....XXXX....XXXXXXXXXXXXXXXXXXXX....ooooXXXXX.....ooooXXXXooooXXXXXXX....ooooo....XXXXoooooXXXXXXX.....oooo..",
"oo....XXXXXXXXX   XXXXXXXXXooooXXXXooooooooo    ooo....ooooooooo.....XXXXXXXXooooXXX    XXXXXXXXXooooXXXXXXXXXXXXXXXXoooooXXXX..",
"ooooooXXXX     XXXXXXXXooooooooXXXXXXXXXooooooooXXXXXXXXXXX.....oooooXXXX    XXXXXXX        oooooXXXX         XXXX   ooooo......",
"ooXXXXoooo     ooo     oooo    XXXXXXXXX....XXXXXXXooooXXXX.....XXXXXXXXX    ooooXXXooooooooXXXXXXXXXXXXX     oooo   oooooXXXX..",
"ooXXXX    XXXXX   XXXXXooooXXXXXXXX.........XXXXXXXXXXXXXXX..........XXXX    XXXXXXX    XXXXXXXXX    XXXXXXXXXXXXXoooXXXXXXXXX..",
"oo....XXXXXXXXXoooXXXXXoooo....oooo.....XXXXXXXX.......oooo.....XXXXXXXXXXXXXXXXXXXXooooXXXXXXXXXXXXXXXXXXXXXXXXXXXXXXXXXX......",
"oo.............................................................................................................................."
};
