/* XPM */
static char *_030b46ef7934261828ef5339619c3f8QyI2Xo1YA20Dz2y8[] = {
/* columns rows colors chars-per-pixel */
"64 64 21 1 ",
"  c #A16824",
". c #A46B26",
"X c #A56C27",
"o c #A76E2A",
"O c #A86F2B",
"+ c #A8702B",
"@ c #AB712D",
"# c #AC732F",
"$ c #AD742F",
"% c #AE7530",
"& c #B07631",
"* c #B17833",
"= c #B37934",
"- c #B57B36",
"; c #B57C37",
": c #B77D38",
"> c #B87F39",
", c #B9803A",
"< c #BB813C",
"1 c #BC823C",
"2 c #BF853F",
/* pixels */
".%*%$## o@##o.@1X  o-212222=@%;>22222& %21  #  o,22#  @*%. ,@ .$",
"1>-=&&%-1,,,,>;=#oX#>;  . O     . #@ @, o.%>1&o +-1 o22=12< ;  o",
"22;o    o         :1=#@ooOo.   ;-%&,-o+&;*@&&->112,%.&&   o1o;;,",
"@%  .11&o22222;oo,11@   %,><;-=#%#&%&=<1-%,O  #2222o@,@  O o;%  ",
"  @*22;,,o @.O222222o =2222%  .@;1<@+.  *,>22> .22= %2 ><=-1 &22",
":222:#o  o@    .@#O  @22>=  122221,1:>2,#   O<2&   .;1 2+  O2# +",
"--@    @,222;-,;o    221+ :2-@*-&-  %  &222,oo 22%=>2% 2 @;. 2,@",
"O      &,; &;1,::-o #;# .22%   +> +2222-  $=22,  &11& &=@222% ,2",
"2;:,1<>=*#OoO#%%%*;:*+ %&   %% o  2#O+o-2,   @+,& ooo% &2#  &2 @",
"2X   o. .  -<2@ X   o#,%.;>##1:..--    o<;>o   O@&=;=@o> @=,o : ",
" .@,2#o   %2*-22222212.O;+o  .%-=%#%oO@+##%;-:-;,2&#@>*o,%-,% &<",
"=22222:o o2 o    .O&>%.= ,,1;>1@ o         O      o<2o <#OoO&:# ",
"2>@#,22=>2o@22222.   &2+22:   @o2221  .    O@;22221 & 2#  o   &2",
"      o&>o#- o.. 222,-& 2. @,2-2&  &222-&%&>22%%@@,; @2oo &22;%X",
"Oo &;@oo+ ; 22222@     @; 22,@  o=2@ .,2<2222     ,,O:2o %221;,-",
",1=%%*111*.;   O&&1:@X 1 1< 12&$<@ $2o 1*-># #22@ o>#*1 O-2%  +2",
"  %*#    .<& -1# o@+&*&@ 2 :>>2>%,1- :o&:-*OO>=*>OO*=&@.2$  .>2.",
"21,222222- @-o .#>;o  .>1& 1@     =oo*# o  >:@oO#;1#  1-O  o-1@@",
"    o&# -:2@>*@@&2.2;<2>oo,-o .O#%&:1 2* @2,  1>@  %,1& 1-=*&#o>",
"122=&-2&  #2#=1>>.2 &#    <2 &o   % -: 22>@ 12@&222#.X@2     =;;",
"      ;2%&#o 2&o - 2@@O@ @2= @  o,1< @>   o2@ @;   &;:# %22<222@",
"22::- *22-222@    2 122=>-   >,*:2222* #2= @2*o@#>2;#>22-&@-%   ",
"%;222#  o -   .o;@ 2o  @%%@122,22@o  X@222,,o *=22=   .112* #-22",
"    o#22,22222%@112 #,>=:.       %-22221  @*#2     o12 O%X O>+  ",
"&,->1,@       22#o oo   o#$-<121,$       #%@. =11222212o  ;21222",
"O  @$::1*,&+*2- .;2@+%%%#$oo..  @#&:=&>12;-<1-;-@      :%;#. %,=",
"%%&@O&@. oX%@.%,* o%-;=>==;>=&@@O+.@&1>#o..%&% .O &-#&# o@ ;;* X",
",><*&@#%=&-,>@o@.@&-11,1:-2=11<;==*oo@+o#%@o.@%&*&$.o@=-:1,&&O#-",
"=2=1;;1,1,,2,&+%*;;11112,1,%@,%1<,>*+o o%&=;>:121,;*@.     +oo.o",
"   >,1&&-<1@;:::21,:**-111#2=:@&1<>%&#%+@-11$&%O+;1-&@oO@#&=;:%&",
"   :11:@o@&*=,,-@1>&%@&:1111;= @<1=%&=--,11@      #1>**%-=>1*>>>",
"&+%>:- <<   ***o*,-#oO%:>1:2#oo#*;%*%--1-%&  o&    &1>:-11-  .#=",
"  &;% #,>#   %&,,>-@ o@%*><11-%&,%+&-->,;=    @    %% ,##       ",
"  .$-&1,;;@  1,::,;$oo o#@*-:1%2>*#-::;2,@2%@                   ",
"#%O :<,;-,,<<-&@#=&#ooo OO@@=,11,;%*-&%,1,2>%o      &  O&       ",
">11,;*%#+&==*#ooo#+. .  #ooO%;:>::&%@@#@%;=%-1,=O   o%%&@   oo&2",
"%%%@+o #& .o o@X  @11=% oo.oO%=;-=%Oo.Xoo*11%1,,o  @       &,---",
"@%&=111&o#1>,1,,*1=   < . oo o%===# O   .@=:1,12 @%,,,11%=1,#X o",
"        &O    o o*,,- :O &12;oo#%%o%;&2-- o@-:>1;1;*%#@@&&o %<<>",
"2:=12122222,<2=@ o%12@ ,2=   ::.. @<;o   @1+ @%*>>&o @=1;;     %",
"  @  O        2222&  2@   @&=  o:1- o&2222oO<*  O#oo>@ # 22222+ ",
"22222222122<22  #  ><.2;22+o%222%O&2o  %  o2  $>>=<@  *221 . ,-.",
"    .+ $* O1@ 22221.-*    @,%   @:. 21>o #2o@12,#. #22>#&  22 =2",
";=22222#&2;@2&    *2 &22221#o o22<2% -&222= 2#  o@oO  & .>2&-2@ ",
"--     #=, . *111, ;1     .1222:O  21@*o   :-X222222222222    *:",
"%;:><,--=*-:;=&%%&<o,22222O#%=@o 22>%   o1,@ 22222;   $$* &2222*",
"o oooOo+Oo.    .  O%>%%oo,:$+oo#-%       1*>11:%.. o,2> o1; @&;2",
"  o;,1,*&,:o@$&@O12= Xo$# X1>- -% %1** O%-#&@ .@#==1$ =22  1&  o",
"1222#o   o-2-2<,2,=o o;=>&  @222.++@&;<;:%o 1  #&&o+&;1+;,;%=:*=",
"2O  .O%22O           2,  O:2:   2%@,%oo@o -@ 2222  1# o@oX.@  &&",
"< %2222O*22 %&;%+222= @*22+  22  :&  1>;%  %2  @ *2# .1,1o.  #2;",
"@-2o   &= -222222 O @,,   #22=@;2 #12# #,2>o 22@12  12-  %22&   ",
"Xo o12*%22o       *2-  &:2%      222  o   :22     -22O =:& %12;:",
";;:,# @.  *<::;>;,- $>2*O#,22222,  O=&,2=   2222>*=. O2&22;  <2&",
"  .@%>11;=&@o @+.o#:2-       O-,  &2222221   oo .@=@@21  @2>   O",
"Oo;,% o Xo&2&     >O.@&=;=&&&&&&=-,,<<2%:,>>-&@=<%+%12. . -2,1:1",
"o.>$  o#%o %-22>212 o:>#&:1,,;&##o ...X@+.o =>,@o&@#oo+%-&%%%%*&",
">-  %,22,12:@       ,22221222&&O. oo.  ->&   &+ *,2;+@;;>>=.. O ",
"@,2,2;    .;--==>22222222,:#   o      #22222-O=22222222;o  #;1-:",
"1 #1&  >22,#.  o@    &222#  %22,,1*=&12222@@&222,>22222 O@,2o.oo",
"%2   .>2-;1222222221O @@   #222222222:222<@. .oX.o;11>O +22 o1,1",
" O;**=,,    o;=+  o%,-#%%=:1Oo>11-:*o  %@    o o        ,< #221,",
"-% &,;& o##@oX@&=-%%oo;,1&..ooo  oo+%%#$$%==->>,>-&%#%=-1 ;2    ",
"o: o12&  #+  o>;@o;1- @;*   =*&   =>>=#&*#o#o oo..%-:*O+.%1 o<22"
};
