/* XPM */
static char *f5113e2c681e4954f3984f6c6008d11a8fKRRFEsO5ObLAY8[] = {
/* columns rows colors chars-per-pixel */
"16 16 160 2 ",
"   c #1A365B",
".  c #1B365C",
"X  c #1B395F",
"o  c #1C3A5D",
"O  c #203559",
"+  c #1D3C61",
"@  c #1F3F64",
"#  c #203E62",
"$  c #214066",
"%  c #244167",
"&  c #244267",
"*  c #204169",
"=  c #20426B",
"-  c #22446F",
";  c #234B6C",
":  c #234173",
">  c #214471",
",  c #214571",
"<  c #224470",
"1  c #234471",
"2  c #234673",
"3  c #234275",
"4  c #234775",
"5  c #234677",
"6  c #254875",
"7  c #244876",
"8  c #244877",
"9  c #234778",
"0  c #244978",
"q  c #244A79",
"w  c #24487A",
"e  c #24497A",
"r  c #25497A",
"t  c #24497B",
"y  c #254A7A",
"u  c #254A7B",
"i  c #254B7B",
"p  c #274B7A",
"a  c #254A7C",
"s  c #254B7C",
"d  c #264B7C",
"f  c #264C7C",
"g  c #264C7D",
"h  c #264D7D",
"j  c #264D7E",
"k  c #274D7F",
"l  c #264E7E",
"z  c #274E7E",
"x  c #264E7F",
"c  c #2E4B7C",
"v  c #2C4D7D",
"b  c #2C4E7E",
"n  c #2D4F7F",
"m  c #2E517F",
"M  c #264E80",
"N  c #264F80",
"B  c #274F82",
"V  c #284F80",
"C  c #275180",
"Z  c #275082",
"A  c #275083",
"S  c #275183",
"D  c #275184",
"F  c #275284",
"G  c #285183",
"H  c #2E5083",
"J  c #285184",
"K  c #2E5486",
"L  c #295389",
"P  c #2A538A",
"I  c #2A5789",
"U  c #2A548B",
"Y  c #2A558C",
"T  c #2B558C",
"R  c #2B568C",
"E  c #315B90",
"W  c #325B90",
"Q  c #2C628D",
"!  c #2C638E",
"~  c #2D638F",
"^  c #31648E",
"/  c #33658F",
"(  c #327B8D",
")  c #2D6590",
"_  c #2E6690",
"`  c #2F6691",
"'  c #2E6791",
"]  c #2E6991",
"[  c #2E6992",
"{  c #2E6993",
"}  c #2F6B92",
"|  c #346B92",
" . c #306C96",
".. c #316F9A",
"X. c #31709B",
"o. c #33779D",
"O. c #347AA0",
"+. c #357AA0",
"@. c #347BA0",
"#. c #337DA3",
"$. c #367DA2",
"%. c #357EA3",
"&. c #3680A4",
"*. c #3C80A4",
"=. c #3F86AA",
"-. c #3F89AA",
";. c #398DAF",
":. c #2B8CBE",
">. c #398FB1",
",. c #338FBF",
"<. c #3A91B0",
"1. c #3A93B2",
"2. c #3C91B0",
"3. c #3B94B2",
"4. c #3D95B4",
"5. c #3C96B5",
"6. c #3D96B5",
"7. c #3E97B5",
"8. c #3D96B6",
"9. c #3E98B6",
"0. c #3D9CBA",
"q. c #3EA0BC",
"w. c #4088AA",
"e. c #409EBB",
"r. c #40A1BD",
"t. c #3390C0",
"y. c #37A0CA",
"u. c #36A1CA",
"i. c #37A3CC",
"p. c #38A1CA",
"a. c #38A2CB",
"s. c #3EA2CB",
"d. c #3EA3CB",
"f. c #3FA7CE",
"g. c #42A7C1",
"h. c #47A7C2",
"j. c #48A7C2",
"k. c #41A8C2",
"l. c #43AAC4",
"z. c #43ADC4",
"x. c #43ACC5",
"c. c #45AEC6",
"v. c #44ADCC",
"b. c #42B1C9",
"n. c #44B0C8",
"m. c #45B2CA",
"M. c #45B0CD",
"N. c #46B8CE",
"B. c #46B8CF",
"V. c #48BBD2",
"C. c #49BCD3",
"Z. c #4DBCD2",
"A. c #4DBDD3",
"S. c #49BFD5",
"D. c #4AC1D6",
"F. c #49C2D7",
"G. c #4AC4D8",
"H. c #4AC5D9",
"J. c #4BC6DA",
"K. c #52C8DB",
/* pixels */
"W L L U U Y Y W W Y Y U U L L W ",
"| b.B.m.m.z.k.j.h.g.l.c.m.B.b.| ",
"*.z.' ' ] ' ! / / ! ! ' ' ' z.*.",
"=.8.: 5 p p p p p p p p 9 3 8.=.",
"-.8.p z z J , $ = , C z z p 8.w.",
"m 1.&.p G 5 = 6 5 , 6 C p #.1.m ",
"b 3.%.p B p 5 p s p p V p O.2.n ",
"n 9.O.p z z p z z s z z p o.8.n ",
"n >.%.z z V p p p p z z z O.;.n ",
"n p q. .s C , , , 5 C s ] 0.p n ",
"c C r.] s G - # @ , C s ] e.C c ",
"H U M.X.B C F K K F C B ..v.U H ",
"O o ( ;   X + & & + X . ; ( o O ",
"K.J.J.J.F.S.C.A.A.V.S.F.J.J.J.K.",
"f.i.i.i.a.a.a.d.d.y.y.a.i.i.i.f.",
"t.:.:.:.:.:.:.,.,.:.:.:.:.:.:.t."
};
