/* XPM */
static char *c16cf6ea81a244abce4eb23ce773cf34bMVFr9MZpR8BrBRp[] = {
/* columns rows colors chars-per-pixel */
"16 14 46 1 ",
"  c #254F7F",
". c #265080",
"X c #285380",
"o c #285483",
"O c #2C5B86",
"+ c #2C5F8A",
"@ c #2D618D",
"# c #276B9F",
"$ c #316C94",
"% c #327199",
"& c #2974A6",
"* c #2C78A7",
"= c #2A7BAB",
"- c #2A7CAB",
"; c #347FA4",
": c #2A7FB0",
"> c #3282AB",
", c #3A87A9",
"< c #2B81B1",
"1 c #2D8ABA",
"2 c #2B8BBE",
"3 c #2B8CBE",
"4 c #2C8DBF",
"5 c #338EB9",
"6 c #2B8FC2",
"7 c #2D8FC0",
"8 c #2D90C1",
"9 c #2E92C4",
"0 c #2D95C7",
"q c #3094C4",
"w c #3299C6",
"e c #37A3CC",
"r c #35A5CD",
"t c #3DB1D3",
"y c #3FB7D8",
"u c #44AAC4",
"i c #47B9CF",
"p c #48B8CE",
"a c #43B5D1",
"s c #46BDD5",
"d c #49BED3",
"f c #4BC6DA",
"g c #4DCADB",
"h c #4BCBDE",
"j c #4CCFE2",
"k c #4ED4E4",
/* pixels */
"8888888888888888",
"1111111111111111",
"      ..        ",
"pppppd,@ippppppp",
"ttttty>$kttttttt",
"222226#$j2222222",
"777779&%sw777777",
"7777779-+hq47777",
"7777779=Okq37777",
"77777781*;aw4777",
"888888801 gr7888",
"<<<<<<<<=.u5:<<<",
"XXXXXXXXXo..XXXX",
"ffffffffffffffff"
};
